<svg viewBox="0 0 64 64" xml:space="preserve" xmlns="http://www.w3.org/2000/svg"><g fill="#ffffff" class="fill-241f20"><path d="M21.751 19.927H11.113a4.555 4.555 0 0 0-4.559 4.56v39.512H26.31V24.487a4.564 4.564 0 0 0-4.559-4.56zm1.416 41.149H9.68V27.44c0-2.146 1.393-3.881 3.113-3.881h7.26c1.713 0 3.113 1.735 3.113 3.881v33.636zM16.936 17.09a4.846 4.846 0 0 0 4.335-4.883l.033-.003s.3-3.521-6.189-12.203c1.876 4.333-1.333 6.799-2.867 9.759a.394.394 0 0 0-.08.154c-.08.153-.16.306-.237.475a4.19 4.19 0 0 0-.175.484c-.009.049-.021.1-.033.148a4.86 4.86 0 0 0 5.213 6.069zm-2.668-6.073c.009-.022.02-.046.027-.068a1.83 1.83 0 0 1 .119-.219c.047-.076.098-.143.148-.21a.17.17 0 0 1 .048-.068c.944-1.304 2.653-2.253 2.065-4.459 2.481 4.611 2.087 6.272 2.087 6.272h-.015a2.341 2.341 0 0 1-2.42 2.023 2.347 2.347 0 0 1-2.059-3.271zM57.276 21.05c-4.853 4.693-10.083 6.785-13.166 7.491-3.081.707-11.582 3.662-14.292 10.883-4.48 15.126 2.608 24.575 2.608 24.575-4.688-17.054 2.894-20.577 8.246-23.593a71.104 71.104 0 0 0 2.52-1.458l-.085.062c-9.989 7.08-9.911 11.093-9.968 13.941-.038 2.02.677 2.004 1.577 1.491.439-.174 8.758-3.454 11.585-5.225.001 0 .003 0 .005-.003 1.648-.883 3.529-2.118 5.251-3.806 7.426-7.626 5.719-24.358 5.719-24.358zm-8.61 23.101c-.524.401-1.062.749-1.594 1.049 0 0-5.005 3.086-8.233 3.024-.27-.055-.321-.519-.188-1.137.95-2.017 2.98-4.091 4.282-5.289a49.608 49.608 0 0 0 1.178-1.037h-.003c.469-.424.921-.857 1.323-1.285.026-.023.047-.038.071-.062 1.431-1.356 1.599-2.3 1.575-2.745l.019-.095c-.007-.051-.031-.093-.048-.137a.762.762 0 0 1-.021-.065h-.004c-.278-.511-1.246-.528-1.253-.528-2.775.808-8.645 2.864-12.271 6.655-.016.015-.019.009-.035.026-.886.857-1.187-.226-1.209-.318.147-.982.631-2.285 1.591-3.573h-.012c.015-.015.031-.029.044-.047.08-.107.171-.211.257-.318l-.004-.003s2.159-3.976 9.936-6.413l.014-.004a46.342 46.342 0 0 1 4.889-1.654c.007-.002.01-.006.018-.008 1.196-.349 4.862-1.294 4.862-1.294v.002c.346-.144.709-.189.671.312-.2 2.738-1.173 11.214-5.855 14.944z"></path></g></svg>