<svg viewBox="0 0 24 24" xml:space="preserve" xmlns="http://www.w3.org/2000/svg"><path d="M23 3H4.9L4.5.8C4.4.3 3.9 0 3.4 0H1C.4 0 0 .4 0 1s.4 1 1 1h1.7l.5 3L5 17c.1.5.4 1 1 1h15c.6 0 1-.6 1-1l2-13c.1-.5-.4-1-1-1zm-2.8 13H6.8L5.2 5h16.5l-1.5 11zM17.5 19c-1.4 0-2.5 1.1-2.5 2.5s1.1 2.5 2.5 2.5 2.5-1.1 2.5-2.5-1.1-2.5-2.5-2.5zm0 4c-.8 0-1.5-.7-1.5-1.5s.7-1.5 1.5-1.5 1.5.7 1.5 1.5-.7 1.5-1.5 1.5zM8.5 19C7.1 19 6 20.1 6 21.5S7.1 24 8.5 24s2.5-1.1 2.5-2.5S9.9 19 8.5 19zm0 4c-.8 0-1.5-.7-1.5-1.5S7.7 20 8.5 20s1.5.7 1.5 1.5S9.3 23 8.5 23z" fill="#ffffff" class="fill-000000"></path></svg>